<svg width="553" height="368" viewBox="0 0 553 368" fill="none" xmlns="http://www.w3.org/2000/svg">
<g clip-path="url(#clip0_7_254)">
<path d="M213.78 33.2393H146.695C144.394 33.2393 142.521 31.3668 142.521 29.0654C142.521 26.7639 144.394 24.8914 146.695 24.8914H213.78C216.081 24.8914 217.954 26.7639 217.954 29.0654C217.954 31.3668 216.081 33.2393 213.78 33.2393Z" fill="#E6E7E8"/>
<path d="M266.133 47.3664H146.695C144.394 47.3664 142.521 45.4939 142.521 43.1925C142.521 40.891 144.394 39.0186 146.695 39.0186H266.133C268.435 39.0186 270.307 40.891 270.307 43.1925C270.307 45.4939 268.435 47.3664 266.133 47.3664Z" fill="#E6E7E8"/>
<path d="M266.133 61.3664H146.695C144.394 61.3664 142.521 59.4939 142.521 57.1925C142.521 54.891 144.394 53.0186 146.695 53.0186H266.133C268.435 53.0186 270.307 54.891 270.307 57.1925C270.307 59.4939 268.435 61.3664 266.133 61.3664Z" fill="#E6E7E8"/>
<path d="M278.785 134.019V132.019C255.7 132.019 235.54 113.161 230.18 86.8928L238.879 89.1305C234.672 85.1447 230.421 78.472 227.785 73.0186C226.228 78.873 223.319 86.2302 219.943 90.941L228.173 87.0425C233.646 114.371 254.672 134.019 278.785 134.019Z" fill="#3F3D56"/>
<path d="M270.053 57.4799C270.053 59.6855 268.258 61.4799 266.053 61.4799H214.053C211.847 61.4799 210.053 59.6855 210.053 57.4799C210.053 55.2744 211.847 53.4799 214.053 53.4799H266.053C268.258 53.4799 270.053 55.2744 270.053 57.4799Z" fill="#11F9A0"/>
<path d="M35.9038 280.297C35.1122 277.541 33.7566 275.19 32.1427 273.513L26.2791 246.783L13.4979 249.914L20.8221 276.692C20.3405 278.957 20.4369 281.662 21.2285 284.418C23.0369 290.715 27.7881 294.898 31.8405 293.76C35.893 292.622 37.7122 286.595 35.9038 280.297Z" fill="#FFB6B6"/>
<path d="M34.1357 104.956C34.1357 104.956 20.3307 104.48 12.3307 113.48C3.16516 124.676 -3.09991 168.547 1.6033 171.501L14.346 261.987L32.5168 259.49L27.8533 150.921L34.1357 104.956Z" fill="#16E6E6"/>
<path d="M127.331 257.48L124.023 367.917H76.5232L74.6033 325.347L66.1633 367.917H15.2533L21.6033 294.737L28.1633 279.347L32.6033 268.917L127.331 257.48Z" fill="#DBE2FF"/>
<path d="M89.6033 86.9172L56.6033 84.9172L45.6033 98.9173C36.103 100.951 27.5221 103.577 21.6033 107.917C23.0193 149.843 19.9086 204.359 32.6033 214.917L21.3307 294.48C21.3307 294.48 25.8766 290.585 33.4704 291.96C36.0938 292.435 39.2607 298.345 42.4843 298.703C67.254 301.455 107.422 298.625 127.331 257.48L119.603 197.917L121.603 110.917C115.351 105.975 107.578 102.763 98.6033 100.917L89.6033 86.9172Z" fill="#16E6E6"/>
<path d="M153.134 62.5784C153.492 66.0454 153.037 69.3058 151.99 71.9199L157.487 104.732L141.797 106.891L137.91 73.3739C136.351 71.029 135.24 67.9303 134.882 64.4634C134.064 56.5431 137.486 49.7006 142.527 49.1801C147.567 48.6596 152.316 54.6582 153.134 62.5784Z" fill="#FFB6B6"/>
<path d="M100.971 113.424C99.3279 115.848 99.7855 118.572 99.3933 121.846C97.7282 135.742 124.358 176.806 142.784 181.534C145.201 182.154 146.579 184.762 149.019 185.287C156.249 186.841 162.98 181.102 162.59 173.718L157.585 79.0099L136.558 86.182L137.903 135.353C137.769 125.166 128.416 114.794 121.331 110.48C121.331 110.48 106.98 104.558 100.971 113.424Z" fill="#16E6E6"/>
<path d="M76.5278 82.3294C92.5815 82.3294 105.596 69.3153 105.596 53.2617C105.596 37.208 92.5815 24.194 76.5278 24.194C60.4741 24.194 47.4601 37.208 47.4601 53.2617C47.4601 69.3153 60.4741 82.3294 76.5278 82.3294Z" fill="#FFB6B6"/>
<path d="M103.603 31.9172C103.353 31.9773 107.43 28.0041 107.603 27.9172C111.603 25.9172 107.493 45.4672 104.603 44.9172C97.4932 43.5672 94.4233 40.8872 91.6633 47.5772C90.8932 49.4372 90.4133 51.5372 88.9133 52.8672C86.8533 54.6772 83.4333 54.5272 81.7533 56.6872C80.4033 58.4272 80.7933 60.9872 81.7933 62.9472C82.7933 64.9172 84.3133 66.5872 85.2233 68.5972C86.2433 70.8572 81.8932 78.0472 80.2333 82.0872V82.0972L80.2234 82.1209C79.7823 83.1806 78.7341 80.1279 77.6275 79.8232C76.3033 79.4586 74.3524 82.5854 72.2433 82.0172C72.2333 82.0172 72.2232 82.0072 72.2132 82.0072C70.2032 81.4472 67.9632 80.8472 65.7433 80.2472H65.7333C59.4833 78.5472 57.9032 80.9872 57.6033 80.9172L53.7233 76.8572C52.3917 75.8877 52.5422 72.7578 51.6033 71.9172C50.8354 71.2298 48.9211 72.8183 48.3569 72.1575C45.5905 68.9175 44.954 65.6763 43.3232 59.2772C41.8332 53.4272 38.7433 35.9172 45.0932 35.1272C51.0832 34.3772 46.7032 26.0372 52.7333 26.3472C52.3733 24.8272 53.0433 23.1972 54.1333 22.0772C55.2132 20.9472 56.6532 20.2472 58.1032 19.6472C65.2533 16.7272 64.0633 14.2173 71.6032 15.9172C72.3532 14.8672 81.9706 12.1299 83.3307 12.4799C83.4306 12.4999 81.2332 16.7673 86.6032 15.9172C86.4032 17.1473 89.3307 14.4799 89.6032 18.9172C95.3307 15.4799 98.4132 23.7072 98.6032 24.9172C98.8532 26.4272 96.5732 25.6572 98.0932 25.8872C98.9933 26.0272 100.533 27.8572 100.383 28.7672C101.033 27.8872 101.683 27.0172 102.343 26.1372C102.463 26.1472 102.573 26.1672 102.693 26.1872C105.733 26.7672 102.248 36.7052 102.373 33.6072C102.603 27.9172 106.633 31.2472 103.603 31.9172Z" fill="#014D44"/>
<path d="M474.37 25.9578C473.296 34.7851 472.122 43.6003 470.85 52.4012C470.333 55.9757 469.786 59.5956 468.348 62.9087C467.367 65.1701 465.992 67.2352 464.624 69.2866C463.009 71.7106 461.366 74.1656 459.172 76.0818C456.977 77.9979 454.127 79.3434 451.222 79.1182C458.929 73.9306 464.108 65.1566 464.926 55.9029C465.311 51.5532 464.783 47.1808 464.682 42.8152C464.581 38.4497 464.946 33.9322 466.96 30.0577C468.974 26.1833 472.953 23.0818 477.318 23.192L474.37 25.9578Z" fill="#014D44"/>
<path d="M396.268 214.231C389.997 219.316 382.291 220.204 379.054 216.214C375.818 212.224 378.277 204.866 384.548 199.78C387.293 197.554 390.313 196.133 393.113 195.572L419.953 174.356L429.641 187.163L402.153 206.719C401.027 209.343 399.013 212.004 396.268 214.231Z" fill="#A0616A"/>
<path d="M401.338 185.428L441.331 147.48L445.331 144.48C445.331 144.48 468.288 122.113 474.233 121.601C476.751 121.385 479.269 122.012 481.39 123.39C484.817 125.613 486.592 129.27 486.592 132.957C486.592 136.037 485.351 139.132 482.811 141.412L446.197 174.282L430.621 188.263L411.25 205.657L409.281 201.646L402.622 188.054L401.338 185.428Z" fill="#11E5D4"/>
<path d="M486.853 159.746L446.81 172.011C453.514 173.899 456.321 214.75 450.082 216.019C450.082 216.019 516.446 220.74 512.825 216.019C508.411 210.265 514.331 172.028 517.154 172.011L486.853 159.746Z" fill="#A0616A"/>
<path d="M540.136 367.92L536.636 325.68C536.636 310.57 535.656 296.92 534.086 284.75C527.796 235.9 512.026 210.861 512.026 210.861H453.026C452.946 210.951 452.866 211.021 452.786 211.111L452.776 211.121C438.856 225.751 431.616 262.54 428.396 284.751C426.866 295.321 426.246 302.591 426.246 302.591L420.476 353.871L424.646 367.921H458.976L458.436 364.91L480.526 284.75L480.796 283.77L481.036 284.75L501.516 367.921L540.136 367.92Z" fill="#DBE2FF"/>
<path d="M454.235 135.379L466.703 110.212L477.208 91.928L485.703 83.2706H508.952L511.116 91.928L524.102 99.1425L528.695 135.215L512.331 213.48C492.851 197.608 452.703 193.212 452.703 193.212L446.197 174.281L441.898 151.476L441.378 148.749L454.235 135.379Z" fill="#11E5D4"/>
<path d="M452.74 180.905C444.669 180.676 438.245 176.327 438.391 171.192C438.536 166.056 445.197 162.078 453.267 162.307C456.8 162.408 460.017 163.297 462.506 164.697L496.691 166.096L495.692 182.124L462.099 179.044C459.535 180.3 456.272 181.006 452.74 180.905Z" fill="#A0616A"/>
<path d="M496.457 126.198L528.703 158.212L472.535 163.964L459.482 182.324L537.77 184.92C544.834 187.436 552.358 182.554 552.939 175.078C553.135 172.554 537.052 108.506 527.315 102.56C515.903 95.5913 496.457 126.198 496.457 126.198Z" fill="#11E5D4"/>
<path d="M518.856 51.8576C519.09 37.3162 507.492 25.338 492.951 25.1035C478.41 24.869 466.431 36.4671 466.197 51.0085C465.962 65.5499 477.56 77.5281 492.102 77.7625C506.643 77.997 518.621 66.399 518.856 51.8576Z" fill="#A0616A"/>
<path d="M550.331 133.48C549.671 135.98 544.531 137.27 543.331 140.48C539.511 142.66 541.581 124.85 540.041 123.68C538.851 122.79 538.531 124.94 538.261 123.09C537.241 116.15 530.571 117.7 525.631 116.58C525.071 115.49 524.641 114.43 524.361 113.4C523.861 111.54 521.581 110.89 520.231 112.26C519.621 111.72 519.181 109.81 518.751 107.9C518.441 106.51 518.131 105.12 517.771 104.24L514.331 96.4799L515.441 102.26C513.191 101.45 510.921 102.29 509.611 99.5099C507.931 95.9399 507.261 91.7599 508.481 88.0099C509.591 84.61 511.461 77.7999 513.571 72.1599C511.181 73.8899 508.311 75.1499 504.981 75.7799C506.161 73.5399 507.361 71.2599 507.861 68.7699C508.351 66.2799 508.051 63.5099 506.471 61.5299C505.171 59.8999 503.251 60.3099 501.631 58.9999C500.371 57.9799 499.281 55.37 498.521 53.9399C501.761 64.7099 504.211 76.1499 500.091 86.4299C497.241 93.5499 491.241 99.3399 484.041 101.97C487.871 99.2299 491.611 96.3099 494.481 92.5899C497.551 88.5999 499.551 83.5599 498.941 78.5599C497.981 70.7099 483.421 45.8799 481.631 40.9999C482.611 45.7699 482.231 49.4899 479.651 51.5399C478.981 44.62 471.441 45.2499 467.331 42.4799C467.331 42.4799 464.151 24.5099 471.611 24.3999C475.211 24.3499 478.981 15.8899 482.251 14.3799C487.471 11.9699 490.671 13.6099 496.461 13.7899C502.241 13.9599 507.791 16.4499 511.321 21.0199C513.171 23.4099 513.851 21.5099 516.631 22.9999C519.271 24.4099 521.051 23.0999 524.041 23.1899C530.031 23.3499 535.841 26.5499 539.201 31.4999C542.561 36.4599 544.631 35.9999 543.301 43.6699C543.281 43.7599 543.281 43.9399 543.301 44.2099C544.031 56.2899 542.161 68.3999 537.371 79.5199C535.891 82.9399 543.13 86.4697 543.12 90.7398C543.11 95.6998 535.121 100.22 535.861 102.34C537.981 112.55 549.891 110.28 547.081 127.37C546.851 128.76 550.771 131.81 550.331 133.48Z" fill="#014D44"/>
<path d="M477.378 102.211C477.598 102.141 477.818 102.061 478.038 101.971C477.758 102.171 477.488 102.361 477.208 102.561L477.378 102.211Z" fill="#014D44"/>
<path d="M514.47 17.9603C511.606 18.3859 508.696 13.6334 510.322 7.04271C513.867 12.4623 515.678 18.5633 515.963 25.2649L514.053 25.8567L514.47 17.9603Z" fill="#198383"/>
<path d="M529.106 11.8085C527.151 18.7351 517.224 23.3708 515.47 20.9602L515.27 25.0909L514.042 23.512C517.603 18.2176 522.456 14.1562 529.106 11.8085Z" fill="#17837A"/>
<path d="M311.121 198.594C311.121 196.292 312.993 194.42 315.295 194.42H382.38C384.681 194.42 386.554 196.292 386.554 198.594C386.554 200.895 384.681 202.768 382.38 202.768H315.295C312.993 202.768 311.121 200.895 311.121 198.594Z" fill="#E6E7E8"/>
<path d="M311.121 226.594C311.121 224.292 312.993 222.42 315.295 222.42H382.38C384.681 222.42 386.554 224.292 386.554 226.594C386.554 228.895 384.681 230.768 382.38 230.768H315.295C312.993 230.768 311.121 228.895 311.121 226.594Z" fill="#E6E7E8"/>
<path d="M262.941 216.895C260.64 216.895 258.768 215.022 258.768 212.721C258.768 210.42 260.64 208.547 262.941 208.547H382.38C384.681 208.547 386.554 210.42 386.554 212.721C386.554 215.022 384.681 216.895 382.38 216.895H262.941Z" fill="#E6E7E8"/>
<path d="M254.062 176.947L245.832 173.048C249.207 177.759 252.116 185.117 253.673 190.971C256.31 185.518 260.56 178.845 264.767 174.859L256.069 177.097C261.429 150.829 281.588 131.971 304.673 131.971V129.971C280.56 129.971 259.534 149.619 254.062 176.947Z" fill="#3F3D56"/>
<path d="M291.941 216.971H239.941C237.735 216.971 235.941 215.177 235.941 212.971C235.941 210.765 237.735 208.971 239.941 208.971H291.941C294.147 208.971 295.941 210.765 295.941 212.971C295.941 215.177 294.147 216.971 291.941 216.971Z" fill="#11F9A0"/>
<path d="M307.129 135.165C308.514 126.63 302.717 118.587 294.181 117.202C285.646 115.817 277.603 121.614 276.218 130.149C274.833 138.685 280.63 146.727 289.165 148.113C297.701 149.498 305.743 143.701 307.129 135.165Z" fill="#3F3D56"/>
<path d="M206.673 19.3147C212.007 19.3147 216.331 14.991 216.331 9.65737C216.331 4.32375 212.007 0 206.673 0C201.34 0 197.016 4.32375 197.016 9.65737C197.016 14.991 201.34 19.3147 206.673 19.3147Z" fill="#E6E7E8"/>
<path d="M319.673 186.315C325.007 186.315 329.331 181.991 329.331 176.657C329.331 171.324 325.007 167 319.673 167C314.34 167 310.016 171.324 310.016 176.657C310.016 181.991 314.34 186.315 319.673 186.315Z" fill="#E6E7E8"/>
<path d="M206.477 15.0909V4.18182H207.176V15.0909H206.477ZM208.83 7.45455C208.778 7.02273 208.571 6.6875 208.207 6.44886C207.844 6.21023 207.398 6.09091 206.869 6.09091C206.483 6.09091 206.145 6.15341 205.855 6.27841C205.568 6.40341 205.344 6.57528 205.182 6.79403C205.023 7.01278 204.943 7.26136 204.943 7.53977C204.943 7.77273 204.999 7.97301 205.109 8.14062C205.223 8.3054 205.368 8.44318 205.544 8.55398C205.72 8.66193 205.905 8.75142 206.098 8.82244C206.291 8.89062 206.469 8.94602 206.631 8.98864L207.517 9.22727C207.744 9.28693 207.997 9.36932 208.276 9.47443C208.557 9.57955 208.825 9.72301 209.081 9.90483C209.339 10.0838 209.553 10.3139 209.72 10.5952C209.888 10.8764 209.972 11.2216 209.972 11.6307C209.972 12.1023 209.848 12.5284 209.601 12.9091C209.357 13.2898 208.999 13.5923 208.527 13.8168C208.058 14.0412 207.489 14.1534 206.818 14.1534C206.193 14.1534 205.652 14.0526 205.195 13.8509C204.74 13.6491 204.382 13.3679 204.121 13.0071C203.862 12.6463 203.716 12.2273 203.682 11.75H204.773C204.801 12.0795 204.912 12.3523 205.105 12.5682C205.301 12.7812 205.548 12.9403 205.847 13.0455C206.148 13.1477 206.472 13.1989 206.818 13.1989C207.222 13.1989 207.584 13.1335 207.905 13.0028C208.226 12.8693 208.48 12.6847 208.668 12.4489C208.855 12.2102 208.949 11.9318 208.949 11.6136C208.949 11.3239 208.868 11.0881 208.706 10.9062C208.544 10.7244 208.331 10.5767 208.067 10.4631C207.803 10.3494 207.517 10.25 207.21 10.1648L206.136 9.85795C205.455 9.66193 204.915 9.3821 204.517 9.01847C204.119 8.65483 203.92 8.17898 203.92 7.59091C203.92 7.10227 204.053 6.67614 204.317 6.3125C204.584 5.94602 204.942 5.66193 205.391 5.46023C205.842 5.25568 206.347 5.15341 206.903 5.15341C207.466 5.15341 207.966 5.25426 208.403 5.45597C208.841 5.65483 209.188 5.92756 209.443 6.27415C209.702 6.62074 209.838 7.0142 209.852 7.45455H208.83Z" fill="url(#paint0_linear_7_254)"/>
</g>
<defs>
<linearGradient id="paint0_linear_7_254" x1="206.5" y1="2" x2="224.162" y2="21.6543" gradientUnits="userSpaceOnUse">
<stop stop-color="#11E5D4"/>
<stop offset="1" stop-color="#2B836C"/>
</linearGradient>
<clipPath id="clip0_7_254">
<rect width="552.941" height="367.921" fill="white"/>
</clipPath>
</defs>
</svg>
