<svg width="553" height="368" viewBox="0 0 553 368" fill="none" xmlns="http://www.w3.org/2000/svg">
<g clip-path="url(#clip0_7_254)">
<path d="M213.78 33.2393H146.695C144.394 33.2393 142.521 31.3668 142.521 29.0654C142.521 26.7639 144.394 24.8914 146.695 24.8914H213.78C216.081 24.8914 217.954 26.7639 217.954 29.0654C217.954 31.3668 216.081 33.2393 213.78 33.2393Z" fill="#E6E7E8"/>
<path d="M266.133 47.3664H146.695C144.394 47.3664 142.521 45.4939 142.521 43.1925C142.521 40.891 144.394 39.0186 146.695 39.0186H266.133C268.435 39.0186 270.307 40.891 270.307 43.1925C270.307 45.4939 268.435 47.3664 266.133 47.3664Z" fill="#E6E7E8"/>
<path d="M266.133 61.3664H146.695C144.394 61.3664 142.521 59.4939 142.521 57.1925C142.521 54.891 144.394 53.0186 146.695 53.0186H266.133C268.435 53.0186 270.307 54.891 270.307 57.1925C270.307 59.4939 268.435 61.3664 266.133 61.3664Z" fill="#E6E7E8"/>
<path d="M278.785 134.019V132.019C255.7 132.019 235.54 113.161 230.18 86.8928L238.879 89.1305C234.672 85.1447 230.421 78.472 227.785 73.0186C226.228 78.873 223.319 86.2302 219.943 90.941L228.173 87.0425C233.646 114.371 254.672 134.019 278.785 134.019Z" fill="#3F3D56"/>
<path d="M270.053 57.4799C270.053 59.6855 268.258 61.4799 266.053 61.4799H214.053C211.847 61.4799 210.053 59.6855 210.053 57.4799C210.053 55.2744 211.847 53.4799 214.053 53.4799H266.053C268.258 53.4799 270.053 55.2744 270.053 57.4799Z" fill="#11F9A0"/>
<path d="M35.9038 280.297C35.1122 277.541 33.7566 275.19 32.1427 273.513L26.2791 246.783L13.4979 249.914L20.8221 276.692C20.3405 278.957 20.4369 281.662 21.2285 284.418C23.0369 290.715 27.7881 294.898 31.8405 293.76C35.893 292.622 37.7122 286.595 35.9038 280.297Z" fill="#FFB6B6"/>
<path d="M34.1357 104.956C34.1357 104.956 20.3307 104.48 12.3307 113.48C3.16516 124.676 -3.09991 168.547 1.6033 171.501L14.346 261.987L32.5168 259.49L27.8533 150.921L34.1357 104.956Z" fill="#16E6E6"/>
<path d="M127.331 257.48L124.023 367.917H76.5232L74.6033 325.347L66.1633 367.917H15.2533L21.6033 294.737L28.1633 279.347L32.6033 268.917L127.331 257.48Z" fill="#DBE2FF"/>
<path d="M89.6033 86.9172L56.6033 84.9172L45.6033 98.9173C36.103 100.951 27.5221 103.577 21.6033 107.917C23.0193 149.843 19.9086 204.359 32.6033 214.917L21.3307 294.48C21.3307 294.48 25.8766 290.585 33.4704 291.96C36.0938 292.435 39.2607 298.345 42.4843 298.703C67.254 301.455 107.422 298.625 127.331 257.48L119.603 197.917L121.603 110.917C115.351 105.975 107.578 102.763 98.6033 100.917L89.6033 86.9172Z" fill="#16E6E6"/>
<path d="M153.134 62.5784C153.492 66.0454 153.037 69.3058 151.99 71.9199L157.487 104.732L141.797 106.891L137.91 73.3739C136.351 71.029 135.24 67.9303 134.882 64.4634C134.064 56.5431 137.486 49.7006 142.527 49.1801C147.567 48.6596 152.316 54.6582 153.134 62.5784Z" fill="#FFB6B6"/>
<path d="M100.971 113.424C99.3279 115.848 99.7855 118.572 99.3933 121.846C97.7282 135.742 124.358 176.806 142.784 181.534C145.201 182.154 146.579 184.762 149.019 185.287C156.249 186.841 162.98 181.102 162.59 173.718L157.585 79.0099L136.558 86.182L137.903 135.353C137.769 125.166 128.416 114.794 121.331 110.48C121.331 110.48 106.98 104.558 100.971 113.424Z" fill="#16E6E6"/>
<path d="M76.5278 82.3294C92.5815 82.3294 105.596 69.3153 105.596 53.2617C105.596 37.208 92.5815 24.194 76.5278 24.194C60.4741 24.194 47.4601 37.208 47.4601 53.2617C47.4601 69.3153 60.4741 82.3294 76.5278 82.3294Z" fill="#FFB6B6"/>
<path d="M103.603 31.9172C103.353 31.9773 107.43 28.0041 107.603 27.9172C111.603 25.9172 107.493 45.4672 104.603 44.9172C97.4932 43.5672 94.4233 40.8872 91.6633 47.5772C90.8932 49.4372 90.4133 51.5372 88.9133 52.8672C86.8533 54.6772 83.4333 54.5272 81.7533 56.6872C80.4033 58.4272 80.7933 60.9872 81.7933 62.9472C82.7933 64.9172 84.3133 66.5872 85.2233 68.5972C86.2433 70.8572 81.8932 78.0472 80.2333 82.0872V82.0972L80.2234 82.1209C79.7823 83.1806 78.7341 80.1279 77.6275 79.8232C76.3033 79.4586 74.3524 82.5854 72.2433 82.0172C72.2333 82.0172 72.2232 82.0072 72.2132 82.0072C70.2032 81.4472 67.9632 80.8472 65.7433 80.2472H65.7333C59.4833 78.5472 57.9032 80.9872 57.6033 80.9172L53.7233 76.8572C52.3917 75.8877 52.5422 72.7578 51.6033 71.9172C50.8354 71.2298 48.9211 72.8183 48.3569 72.1575C45.5905 68.9175 44.954 65.6763 43.3232 59.2772C41.8332 53.4272 38.7433 35.9172 45.0932 35.1272C51.0832 34.3772 46.7032 26.0372 52.7333 26.3472C52.3733 24.8272 53.0433 23.1972 54.1333 22.0772C55.2132 20.9472 56.6532 20.2472 58.1032 19.6472C65.2533 16.7272 64.0633 14.2173 71.6032 15.9172C72.3532 14.8672 81.9706 12.1299 83.3307 12.4799C83.4306 12.4999 81.2332 16.7673 86.6032 15.9172C86.4032 17.1473 89.3307 14.4799 89.6032 18.9172C95.3307 15.4799 98.4132 23.7072 98.6032 24.9172C98.8532 26.4272 96.5732 25.6572 98.0932 25.8872C98.9933 26.0272 100.533 27.8572 100.383 28.7672C101.033 27.8872 101.683 27.0172 102.343 26.1372C102.463 26.1472 102.573 26.1672 102.693 26.1872C105.733 26.7672 102.248 36.7052 102.373 33.6072C102.603 27.9172 106.633 31.2472 103.603 31.9172Z" fill="#014D44"/>
<path d="M474.37 25.9578C473.296 34.7851 472.122 43.6003 470.85 52.4012C470.333 55.9757 469.786 59.5956 468.348 62.9087C467.367 65.1701 465.992 67.2352 464.624 69.2866C463.009 71.7106 461.366 74.1656 459.172 76.0818C456.977 77.9979 454.127 79.3434 451.222 79.1182C458.929 73.9306 464.108 65.1566 464.926 55.9029C465.311 51.5532 464.783 47.1808 464.682 42.8152C464.581 38.4497 464.946 33.9322 466.96 30.0577C468.974 26.1833 472.953 23.0818 477.318 23.192L474.37 25.9578Z" fill="#014D44"/>
<path d="M396.268 214.231C389.997 219.316 382.291 220.204 379.054 216.214C375.818 212.224 378.277 204.866 384.548 199.78C387.293 197.554 390.313 196.133 393.113 195.572L419.953 174.356L429.641 187.163L402.153 206.719C401.027 209.343 399.013 212.004 396.268 214.231Z" fill="#A0616A"/>
<path d="M401.338 185.428L441.331 147.48L445.331 144.48C445.331 144.48 468.288 122.113 474.233 121.601C476.751 121.385 479.269 122.012 481.39 123.39C484.817 125.613 486.592 129.27 486.592 132.957C486.592 136.037 485.351 139.132 482.811 141.412L446.197 174.282L430.621 188.263L411.25 205.657L409.281 201.646L402.622 188.054L401.338 185.428Z" fill="#11E5D4"/>
<path d="M486.853 159.746L446.81 172.011C453.514 173.899 456.321 214.75 450.082 216.019C450.082 216.019 516.446 220.74 512.825 216.019C508.411 210.265 514.331 172.028 517.154 172.011L486.853 159.746Z" fill="#A0616A"/>
<path d="M540.136 367.92L536.636 325.68C536.636 310.57 535.656 296.92 534.086 284.75C527.796 235.9 512.026 210.861 512.026 210.861H453.026C452.946 210.951 452.866 211.021 452.786 211.111L452.776 211.121C438.856 225.751 431.616 262.54 428.396 284.751C426.866 295.321 426.246 302.591 426.246 302.591L420.476 353.871L424.646 367.921H458.976L458.436 364.91L480.526 284.75L480.796 283.77L481.036 284.75L501.516 367.921L540.136 367.92Z" fill="#DBE2FF"/>
<path d="M454.235 135.379L466.703 110.212L477.208 91.928L485.703 83.2706H508.952L511.116 91.928L524.102 99.1425L528.695 135.215L512.331 213.48C492.851 197.608 452.703 193.212 452.703 193.212L446.197 174.281L441.898 151.476L441.378 148.749L454.235 135.379Z" fill="#11E5D4"/>
<path d="M452.74 180.905C444.669 180.676 438.245 176.327 438.391 171.192C438.536 166.056 445.197 162.078 453.267 162.307C456.8 162.408 460.017 163.297 462.506 164.697L496.691 166.096L495.692 182.124L462.099 179.044C459.535 180.3 456.272 181.006 452.74 180.905Z" fill="#A0616A"/>
<path d="M496.457 126.198L528.703 158.212L472.535 163.964L459.482 182.324L537.77 184.92C544.834 187.436 552.358 182.554 552.939 175.078C553.135 172.554 537.052 108.506 527.315 102.56C515.903 95.5913 496.457 126.198 496.457 126.198Z" fill="#11E5D4"/>
<path d="M518.856 51.8576C519.09 37.3162 507.492 25.338 492.951 25.1035C478.41 24.869 466.431 36.4671 466.197 51.0085C465.962 65.5499 477.56 77.5281 492.102 77.7625C506.643 77.997 518.621 66.399 518.856 51.8576Z" fill="#A0616A"/>
<path d="M550.331 133.48C549.671 135.98 544.531 137.27 543.331 140.48C539.511 142.66 541.581 124.85 540.041 123.68C538.851 122.79 538.531 124.94 538.261 123.09C537.241 116.15 530.571 117.7 525.631 116.58C525.071 115.49 524.641 114.43 524.361 113.4C523.861 111.54 521.581 110.89 520.231 112.26C519.621 111.72 519.181 109.81 518.751 107.9C518.441 106.51 518.131 105.12 517.771 104.24L514.331 96.4799L515.441 102.26C513.191 101.45 510.921 102.29 509.611 99.5099C507.931 95.9399 507.261 91.7599 508.481 88.0099C509.591 84.61 511.461 77.7999 513.571 72.1599C511.181 73.8899 508.311 75.1499 504.981 75.7799C506.161 73.5399 507.361 71.2599 507.861 68.7699C508.351 66.2799 508.051 63.5099 506.471 61.5299C505.171 59.8999 503.251 60.3099 501.631 58.9999C500.371 57.9799 499.281 55.37 498.521 53.9399C501.761 64.7099 504.211 76.1499 500.091 86.4299C497.241 93.5499 491.241 99.3399 484.041 101.97C487.871 99.2299 491.611 96.3099 494.481 92.5899C497.551 88.5999 499.551 83.5599 498.941 78.5599C497.981 70.7099 483.421 45.8799 481.631 40.9999C482.611 45.7699 482.231 49.4899 479.651 51.5399C478.981 44.62 471.441 45.2499 467.331 42.4799C467.331 42.4799 464.151 24.5099 471.611 24.3999C475.211 24.3499 478.981 15.8899 482.251 14.3799C487.471 11.9699 490.671 13.6099 496.461 13.7899C502.241 13.9599 507.791 16.4499 511.321 21.0199C513.171 23.4099 513.851 21.5099 516.631 22.9999C519.271 24.4099 521.051 23.0999 524.041 23.1899C530.031 23.3499 535.841 26.5499 539.201 31.4999C542.561 36.4599 544.631 35.9999 543.301 43.6699C543.281 43.7599 543.281 43.9399 543.301 44.2099C544.031 56.2899 542.161 68.3999 537.371 79.5199C535.891 82.9399 543.13 86.4697 543.12 90.7398C543.11 95.6998 535.121 100.22 535.861 102.34C537.981 112.55 549.891 110.28 547.081 127.37C546.851 128.76 550.771 131.81 550.331 133.48Z" fill="#014D44"/>
<path d="M477.378 102.211C477.598 102.141 477.818 102.061 478.038 101.971C477.758 102.171 477.488 102.361 477.208 102.561L477.378 102.211Z" fill="#014D44"/>
<path d="M514.47 17.9603C511.606 18.3859 508.696 13.6334 510.322 7.04271C513.867 12.4623 515.678 18.5633 515.963 25.2649L514.053 25.8567L514.47 17.9603Z" fill="#198383"/>
<path d="M529.106 11.8085C527.151 18.7351 517.224 23.3708 515.47 20.9602L515.27 25.0909L514.042 23.512C517.603 18.2176 522.456 14.1562 529.106 11.8085Z" fill="#17837A"/>
<path d="M311.121 198.594C311.121 196.292 312.993 194.42 315.295 194.42H382.38C384.681 194.42 386.554 196.292 386.554 198.594C386.554 200.895 384.681 202.768 382.38 202.768H315.295C312.993 202.768 311.121 200.895 311.121 198.594Z" fill="#E6E7E8"/>
<path d="M311.121 226.594C311.121 224.292 312.993 222.42 315.295 222.42H382.38C384.681 222.42 386.554 224.292 386.554 226.594C386.554 228.895 384.681 230.768 382.38 230.768H315.295C312.993 230.768 311.121 228.895 311.121 226.594Z" fill="#E6E7E8"/>
<path d="M262.941 216.895C260.64 216.895 258.768 215.022 258.768 212.721C258.768 210.42 260.64 208.547 262.941 208.547H382.38C384.681 208.547 386.554 210.42 386.554 212.721C386.554 215.022 384.681 216.895 382.38 216.895H262.941Z" fill="#E6E7E8"/>
<path d="M254.062 176.947L245.832 173.048C249.207 177.759 252.116 185.117 253.673 190.971C256.31 185.518 260.56 178.845 264.767 174.859L256.069 177.097C261.429 150.829 281.588 131.971 304.673 131.971V129.971C280.56 129.971 259.534 149.619 254.062 176.947Z" fill="#3F3D56"/>
<path d="M291.941 216.971H239.941C237.735 216.971 235.941 215.177 235.941 212.971C235.941 210.765 237.735 208.971 239.941 208.971H291.941C294.147 208.971 295.941 210.765 295.941 212.971C295.941 215.177 294.147 216.971 291.941 216.971Z" fill="#11F9A0"/>
<path d="M307.129 135.165C308.514 126.63 302.717 118.587 294.181 117.202C285.646 115.817 277.603 121.614 276.218 130.149C274.833 138.685 280.63 146.727 289.165 148.113C297.701 149.498 305.743 143.701 307.129 135.165Z" fill="#3F3D56"/>
<path d="M206.673 19.3147C212.007 19.3147 216.331 14.991 216.331 9.65737C216.331 4.32375 212.007 0 206.673 0C201.34 0 197.016 4.32375 197.016 9.65737C197.016 14.991 201.34 19.3147 206.673 19.3147Z" fill="#E6E7E8"/>
<path d="M319.673 186.315C325.007 186.315 329.331 181.991 329.331 176.657C329.331 171.324 325.007 167 319.673 167C314.34 167 310.016 171.324 310.016 176.657C310.016 181.991 314.34 186.315 319.673 186.315Z" fill="#E6E7E8"/>
<path d="M206.477 15.0909V4.18182H207.176V15.0909H206.477ZM208.83 7.45455C208.778 7.02273 208.571 6.6875 208.207 6.44886C207.844 6.21023 207.398 6.09091 206.869 6.09091C206.483 6.09091 206.145 6.15341 205.855 6.27841C205.568 6.40341 205.344 6.57528 205.182 6.79403C205.023 7.01278 204.943 7.26136 204.943 7.53977C204.943 7.77273 204.999 7.97301 205.109 8.14062C205.223 8.3054 205.368 8.44318 205.544 8.55398C205.72 8.66193 205.905 8.75142 206.098 8.82244C206.291 8.89062 206.469 8.94602 206.631 8.98864L207.517 9.22727C207.744 9.28693 207.997 9.36932 208.276 9.47443C208.557 9.57955 208.825 9.72301 209.081 9.90483C209.339 10.0838 209.553 10.3139 209.72 10.5952C209.888 10.8764 209.972 11.2216 209.972 11.6307C209.972 12.1023 209.848 12.5284 209.601 12.9091C209.357 13.2898 208.999 13.5923 208.527 13.8168C208.058 14.0412 207.489 14.1534 206.818 14.1534C206.193 14.1534 205.652 14.0526 205.195 13.8509C204.74 13.6491 204.382 13.3679 204.121 13.0071C203.862 12.6463 203.716 12.2273 203.682 11.75H204.773C204.801 12.0795 204.912 12.3523 205.105 12.5682C205.301 12.7812 205.548 12.9403 205.847 13.0455C206.148 13.1477 206.472 13.1989 206.818 13.1989C207.222 13.1989 207.584 13.1335 207.905 13.0028C208.226 12.8693 208.48 12.6847 208.668 12.4489C208.855 12.2102 208.949 11.9318 208.949 11.6136C208.949 11.3239 208.868 11.0881 208.706 10.9062C208.544 10.7244 208.331 10.5767 208.067 10.4631C207.803 10.3494 207.517 10.25 207.21 10.1648L206.136 9.85795C205.455 9.66193 204.915 9.3821 204.517 9.01847C204.119 8.65483 203.92 8.17898 203.92 7.59091C203.92 7.10227 204.053 6.67614 204.317 6.3125C204.584 5.94602 204.942 5.66193 205.391 5.46023C205.842 5.25568 206.347 5.15341 206.903 5.15341C207.466 5.15341 207.966 5.25426 208.403 5.45597C208.841 5.65483 209.188 5.92756 209.443 6.27415C209.702 6.62074 209.838 7.0142 209.852 7.45455H208.83Z" fill="url(#paint0_linear_7_254)"/>
<path d="M315.67 176.168V177.105H311.852V176.168H315.67ZM319.997 182.091V171.182H320.696V182.091H319.997ZM322.349 174.455C322.298 174.023 322.091 173.688 321.727 173.449C321.363 173.21 320.917 173.091 320.389 173.091C320.002 173.091 319.664 173.153 319.375 173.278C319.088 173.403 318.863 173.575 318.701 173.794C318.542 174.013 318.463 174.261 318.463 174.54C318.463 174.773 318.518 174.973 318.629 175.141C318.743 175.305 318.887 175.443 319.064 175.554C319.24 175.662 319.424 175.751 319.618 175.822C319.811 175.891 319.988 175.946 320.15 175.989L321.037 176.227C321.264 176.287 321.517 176.369 321.795 176.474C322.076 176.58 322.345 176.723 322.6 176.905C322.859 177.084 323.072 177.314 323.24 177.595C323.407 177.876 323.491 178.222 323.491 178.631C323.491 179.102 323.368 179.528 323.12 179.909C322.876 180.29 322.518 180.592 322.047 180.817C321.578 181.041 321.008 181.153 320.338 181.153C319.713 181.153 319.172 181.053 318.714 180.851C318.26 180.649 317.902 180.368 317.64 180.007C317.382 179.646 317.235 179.227 317.201 178.75H318.292C318.321 179.08 318.431 179.352 318.625 179.568C318.821 179.781 319.068 179.94 319.366 180.045C319.667 180.148 319.991 180.199 320.338 180.199C320.741 180.199 321.103 180.134 321.424 180.003C321.745 179.869 322 179.685 322.187 179.449C322.375 179.21 322.468 178.932 322.468 178.614C322.468 178.324 322.387 178.088 322.225 177.906C322.064 177.724 321.85 177.577 321.586 177.463C321.322 177.349 321.037 177.25 320.73 177.165L319.656 176.858C318.974 176.662 318.434 176.382 318.037 176.018C317.639 175.655 317.44 175.179 317.44 174.591C317.44 174.102 317.572 173.676 317.836 173.312C318.103 172.946 318.461 172.662 318.91 172.46C319.362 172.256 319.866 172.153 320.423 172.153C320.985 172.153 321.485 172.254 321.923 172.456C322.36 172.655 322.707 172.928 322.963 173.274C323.221 173.621 323.358 174.014 323.372 174.455H322.349Z" fill="url(#paint1_linear_7_254)"/>
<path d="M297.945 128.254L297.895 128.248C297.894 128.248 297.893 128.248 297.892 128.248C297.891 128.249 297.89 128.249 297.889 128.25C297.889 128.251 297.888 128.252 297.888 128.253C297.888 128.254 297.889 128.255 297.889 128.256L297.894 128.263C297.895 128.266 297.894 128.268 297.892 128.271C297.875 128.287 297.868 128.307 297.873 128.329C297.874 128.336 297.872 128.342 297.868 128.348L297.839 128.389C297.828 128.403 297.816 128.406 297.8 128.397C296.689 127.755 295.593 127.123 294.511 126.501C294.423 126.45 294.304 126.402 294.205 126.339C294.2 126.336 294.194 126.334 294.188 126.334H294.163C294.158 126.334 294.153 126.336 294.149 126.339C294.145 126.341 294.142 126.346 294.14 126.35C294.139 126.355 294.138 126.36 294.14 126.365C294.141 126.37 294.144 126.374 294.148 126.377L294.375 126.548L294.491 126.694C294.491 126.695 294.491 126.695 294.49 126.695C294.487 126.695 294.484 126.696 294.481 126.696C294.473 126.697 294.469 126.702 294.468 126.71C294.461 126.827 294.49 126.95 294.489 127.054C294.487 127.51 294.489 127.966 294.494 128.423C294.494 128.429 294.496 128.435 294.501 128.439C294.505 128.443 294.511 128.445 294.517 128.445H294.564C294.573 128.445 294.577 128.45 294.575 128.46L294.548 128.592C294.545 128.604 294.538 128.608 294.527 128.606L294.514 128.603C294.513 128.603 294.511 128.603 294.51 128.603C294.508 128.604 294.506 128.604 294.505 128.605C294.504 128.606 294.503 128.608 294.502 128.609C294.502 128.611 294.501 128.612 294.501 128.614C294.503 128.672 294.481 128.726 294.485 128.778C294.494 128.912 294.488 129.044 294.467 129.176C294.465 129.187 294.467 129.197 294.473 129.207C294.514 129.278 294.541 129.353 294.587 129.418C294.719 129.603 294.837 129.795 294.943 129.996C294.994 130.093 295.062 130.187 295.116 130.288C295.156 130.362 295.201 130.433 295.251 130.502C295.315 130.59 295.363 130.671 295.395 130.746C295.407 130.773 295.406 130.798 295.394 130.823C295.372 130.864 295.361 130.885 295.361 130.885C295.346 130.938 295.339 130.989 295.339 131.038C295.233 130.95 295.158 130.894 295.116 130.869C294.341 130.418 293.565 129.969 292.789 129.521L292.825 129.495C292.828 129.494 292.829 129.491 292.83 129.489C292.831 129.486 292.83 129.484 292.829 129.481C292.828 129.479 292.827 129.477 292.824 129.476C292.822 129.475 292.819 129.474 292.817 129.475C292.793 129.48 292.775 129.474 292.761 129.457C292.755 129.449 292.753 129.441 292.756 129.432C292.794 129.287 292.808 129.14 292.8 128.991C292.798 128.964 292.8 128.935 292.804 128.904C292.807 128.875 292.81 128.846 292.81 128.816C292.812 128.771 292.786 128.743 292.793 128.697C292.8 128.648 292.803 128.62 292.803 128.612C292.801 128.556 292.806 128.5 292.816 128.445C292.821 128.419 292.822 128.389 292.819 128.357C292.817 128.326 292.818 128.296 292.823 128.266C292.833 128.203 292.837 128.159 292.837 128.134C292.835 128.05 292.835 127.967 292.837 127.883C292.837 127.874 292.834 127.866 292.827 127.86L292.821 127.853C292.814 127.847 292.81 127.838 292.809 127.828C292.794 127.672 292.811 127.519 292.859 127.369C292.864 127.355 292.858 127.335 292.841 127.309C292.834 127.3 292.835 127.291 292.843 127.283C292.873 127.254 292.883 127.218 292.871 127.175C292.869 127.17 292.87 127.164 292.874 127.159C292.901 127.127 292.901 127.091 292.874 127.049C292.869 127.041 292.861 127.035 292.852 127.032L292.827 127.023C292.815 127.019 292.812 127.011 292.816 126.998C292.834 126.957 292.858 126.945 292.891 126.961C292.893 126.962 292.896 126.963 292.899 126.962C292.901 126.962 292.904 126.961 292.906 126.959C292.908 126.957 292.909 126.954 292.91 126.952C292.91 126.949 292.91 126.946 292.908 126.944L292.892 126.912C292.891 126.91 292.89 126.908 292.888 126.908C292.886 126.907 292.884 126.907 292.882 126.907C292.88 126.908 292.878 126.909 292.877 126.911C292.876 126.912 292.875 126.914 292.875 126.916C292.875 126.92 292.875 126.924 292.875 126.927C292.875 126.93 292.874 126.931 292.871 126.931H292.853C292.853 126.931 292.853 126.931 292.852 126.931C292.852 126.931 292.852 126.931 292.852 126.931C292.851 126.93 292.851 126.93 292.851 126.93C292.851 126.929 292.851 126.929 292.851 126.929C292.852 126.918 292.857 126.908 292.864 126.9C292.869 126.893 292.87 126.887 292.868 126.879L292.864 126.869C292.863 126.868 292.862 126.866 292.861 126.865C292.86 126.864 292.858 126.864 292.857 126.863C292.855 126.863 292.854 126.863 292.852 126.864C292.851 126.865 292.85 126.866 292.849 126.867L292.825 126.898C292.815 126.913 292.81 126.911 292.813 126.893L292.815 126.876C292.815 126.874 292.816 126.872 292.817 126.872C292.819 126.871 292.822 126.869 292.824 126.867C292.826 126.866 292.827 126.864 292.828 126.862C292.829 126.86 292.83 126.858 292.83 126.855C292.83 126.842 292.826 126.835 292.819 126.836C292.815 126.836 292.812 126.834 292.809 126.83C292.788 126.796 292.767 126.761 292.747 126.727C292.728 126.696 292.706 126.664 292.679 126.633C292.535 126.464 292.394 126.276 292.227 126.129C292.168 126.079 292.089 126.02 292.048 125.955C292.039 125.939 292.025 125.931 292.006 125.931C291.994 125.93 291.984 125.926 291.975 125.917L291.887 125.83C291.88 125.823 291.871 125.817 291.861 125.813C291.844 125.807 291.834 125.794 291.831 125.775C291.829 125.765 291.825 125.756 291.818 125.749C291.759 125.68 291.692 125.62 291.616 125.569C291.587 125.549 291.553 125.519 291.515 125.478C291.476 125.436 291.432 125.408 291.383 125.395C291.31 125.375 291.254 125.344 291.216 125.302C291.208 125.294 291.2 125.289 291.19 125.287L291.017 125.247C291.005 125.244 291.005 125.239 291.015 125.233C291.045 125.213 291.067 125.186 291.081 125.153C291.667 124.918 292.225 124.954 292.755 125.259C294.485 126.257 296.216 127.255 297.945 128.254Z" fill="#3AE5B9"/>
<path d="M291.081 125.153C291.068 125.186 291.046 125.213 291.015 125.233C291.005 125.239 291.005 125.244 291.017 125.247L291.19 125.287C291.2 125.289 291.209 125.294 291.216 125.302C291.255 125.344 291.31 125.375 291.383 125.395C291.432 125.408 291.476 125.436 291.515 125.478C291.553 125.519 291.587 125.549 291.616 125.569C291.692 125.62 291.759 125.68 291.818 125.749C291.825 125.756 291.829 125.765 291.831 125.775C291.834 125.794 291.844 125.807 291.861 125.813C291.871 125.817 291.88 125.823 291.887 125.83L291.975 125.917C291.984 125.926 291.994 125.93 292.006 125.931C292.025 125.931 292.039 125.939 292.048 125.955C292.089 126.02 292.168 126.079 292.227 126.129C292.394 126.276 292.535 126.464 292.679 126.633C292.706 126.664 292.728 126.696 292.747 126.727C292.767 126.761 292.788 126.796 292.81 126.83C292.812 126.834 292.815 126.836 292.819 126.836C292.826 126.835 292.83 126.842 292.83 126.855C292.83 126.858 292.829 126.86 292.828 126.862C292.827 126.864 292.826 126.866 292.824 126.867C292.822 126.869 292.82 126.871 292.817 126.872C292.816 126.872 292.815 126.874 292.815 126.876L292.813 126.893C292.81 126.911 292.815 126.913 292.826 126.898L292.849 126.867C292.85 126.866 292.851 126.865 292.852 126.864C292.854 126.863 292.855 126.863 292.857 126.863C292.858 126.864 292.86 126.864 292.861 126.865C292.862 126.866 292.863 126.868 292.864 126.869L292.868 126.879C292.87 126.887 292.869 126.893 292.864 126.9C292.857 126.908 292.853 126.918 292.851 126.929C292.851 126.929 292.851 126.929 292.851 126.93C292.851 126.93 292.852 126.93 292.852 126.931C292.852 126.931 292.852 126.931 292.853 126.931C292.853 126.931 292.853 126.931 292.854 126.931H292.871C292.874 126.931 292.875 126.93 292.875 126.927C292.876 126.924 292.876 126.92 292.875 126.916C292.875 126.914 292.876 126.912 292.877 126.911C292.878 126.909 292.88 126.908 292.882 126.907C292.884 126.907 292.886 126.907 292.888 126.908C292.89 126.908 292.891 126.91 292.892 126.912L292.908 126.944C292.91 126.946 292.91 126.949 292.91 126.952C292.909 126.954 292.908 126.957 292.906 126.959C292.904 126.961 292.902 126.962 292.899 126.962C292.896 126.963 292.893 126.962 292.891 126.961C292.858 126.945 292.834 126.957 292.817 126.998C292.812 127.011 292.815 127.019 292.827 127.023L292.852 127.032C292.861 127.035 292.869 127.041 292.874 127.049C292.901 127.091 292.901 127.127 292.874 127.159C292.87 127.164 292.869 127.17 292.871 127.175C292.883 127.218 292.873 127.254 292.843 127.283C292.835 127.291 292.834 127.3 292.841 127.309C292.858 127.335 292.864 127.355 292.859 127.369C292.811 127.519 292.794 127.672 292.809 127.828C292.81 127.838 292.814 127.847 292.821 127.853L292.827 127.86C292.834 127.866 292.837 127.874 292.837 127.883C292.835 127.967 292.835 128.05 292.837 128.134C292.837 128.159 292.833 128.203 292.823 128.266C292.819 128.296 292.817 128.326 292.819 128.357C292.822 128.389 292.821 128.419 292.816 128.445C292.806 128.5 292.801 128.556 292.803 128.612C292.803 128.62 292.8 128.648 292.793 128.697C292.786 128.743 292.812 128.771 292.81 128.816C292.81 128.846 292.808 128.875 292.804 128.904C292.8 128.935 292.798 128.964 292.8 128.991C292.808 129.14 292.794 129.287 292.756 129.432C292.754 129.441 292.755 129.449 292.761 129.457C292.775 129.474 292.793 129.48 292.817 129.475C292.819 129.474 292.822 129.475 292.824 129.476C292.827 129.477 292.828 129.479 292.829 129.481C292.83 129.484 292.831 129.486 292.83 129.489C292.829 129.491 292.828 129.494 292.826 129.495L292.789 129.521C292.285 129.227 291.773 129.165 291.253 129.335C291.121 129.378 290.929 129.471 290.678 129.616C290.216 129.881 289.752 130.149 289.285 130.421C289.284 129.209 289.443 127.993 289.833 126.847C290.004 126.344 290.252 125.903 290.578 125.523C290.586 125.513 290.584 125.506 290.573 125.501C290.559 125.495 290.541 125.497 290.519 125.506C290.517 125.477 290.512 125.466 290.504 125.471L291.081 125.153Z" fill="#11F9A0"/>
<path d="M290.504 125.471C290.512 125.466 290.517 125.477 290.519 125.506C290.292 125.659 290.08 125.848 289.884 126.074C288.552 127.604 288.027 129.702 287.74 131.657C287.722 131.647 287.704 131.63 287.687 131.604C287.68 131.594 287.672 131.594 287.663 131.603C287.649 131.619 287.632 131.623 287.614 131.614C287.604 131.609 287.594 131.609 287.584 131.613C287.527 131.638 287.467 131.65 287.405 131.648C287.376 131.647 287.343 131.649 287.305 131.653C287.129 131.671 286.939 131.664 286.762 131.658C286.423 131.648 286.085 131.655 285.747 131.678C285.723 131.679 285.698 131.678 285.672 131.673C285.6 131.662 285.568 131.659 285.485 131.671C285.423 131.68 285.36 131.672 285.296 131.648C285.292 131.646 285.287 131.646 285.282 131.646C285.277 131.647 285.273 131.649 285.269 131.652C285.239 131.674 285.217 131.703 285.201 131.74C284.695 132.955 284.338 134.213 284.13 135.513C284.115 135.606 284.091 135.709 284.058 135.824C284.055 135.834 284.049 135.842 284.039 135.846C284.029 135.851 284.017 135.852 284.004 135.852C284.007 134.049 284.008 132.247 284.006 130.444C284.006 130.206 284.02 130.023 284.049 129.893C284.139 129.489 284.34 129.152 284.653 128.883C284.744 128.805 284.892 128.707 285.098 128.59C285.252 128.501 285.407 128.413 285.561 128.323C287.209 127.372 288.856 126.422 290.504 125.471Z" fill="#16E6E6"/>
<path d="M290.519 125.506C290.541 125.497 290.559 125.495 290.573 125.501C290.584 125.506 290.586 125.513 290.578 125.523C290.252 125.903 290.004 126.344 289.833 126.847C289.443 127.993 289.284 129.209 289.284 130.421C288.853 130.664 288.583 130.821 288.475 130.893C288.132 131.12 287.889 131.453 287.746 131.891C287.717 131.807 287.715 131.729 287.74 131.657C288.027 129.702 288.552 127.604 289.884 126.074C290.08 125.848 290.292 125.659 290.519 125.506Z" fill="#15CF72"/>
<path d="M297.945 128.254C298.305 128.461 298.758 128.686 299.028 128.931C299.317 129.194 299.504 129.518 299.589 129.904C299.619 130.04 299.634 130.244 299.633 130.515C299.629 132.575 299.628 134.634 299.63 136.694L299.601 136.697C299.591 136.698 299.584 136.694 299.583 136.683L299.546 136.493C299.522 136.332 299.482 136.175 299.427 136.021C299.104 135.126 298.579 134.337 297.966 133.598C297.594 133.15 297.218 132.743 296.836 132.377L296.84 132.331C296.841 132.319 296.836 132.314 296.824 132.314C296.819 132.314 296.814 132.314 296.808 132.314C296.794 132.314 296.787 132.307 296.789 132.292L296.825 131.919C296.826 131.911 296.824 131.903 296.82 131.896C296.811 131.881 296.812 131.869 296.822 131.859C296.831 131.851 296.833 131.841 296.83 131.83L296.789 131.71C296.786 131.699 296.787 131.688 296.793 131.678C296.809 131.649 296.81 131.621 296.793 131.595C296.791 131.59 296.789 131.586 296.788 131.581C296.787 131.575 296.788 131.57 296.789 131.565C296.805 131.502 296.809 131.443 296.802 131.387C296.776 131.197 296.799 131.001 296.801 130.85C296.808 130.333 296.792 129.816 296.754 129.3C296.748 129.232 296.749 129.152 296.756 129.061C296.762 128.983 296.764 128.906 296.762 128.828C296.761 128.817 296.767 128.811 296.778 128.811C296.804 128.808 296.83 128.804 296.858 128.797C296.868 128.794 296.871 128.788 296.868 128.778C296.85 128.733 296.831 128.7 296.81 128.678C296.057 127.905 295.245 127.195 294.375 126.548L294.148 126.377C294.144 126.374 294.141 126.37 294.14 126.365C294.138 126.36 294.139 126.355 294.14 126.35C294.142 126.346 294.145 126.341 294.149 126.339C294.153 126.336 294.158 126.334 294.163 126.334H294.188C294.194 126.334 294.2 126.336 294.205 126.339C294.304 126.402 294.423 126.45 294.512 126.501C295.593 127.123 296.689 127.755 297.8 128.397C297.816 128.406 297.828 128.403 297.839 128.389L297.868 128.348C297.873 128.342 297.874 128.336 297.873 128.329C297.868 128.307 297.875 128.287 297.892 128.271C297.894 128.268 297.895 128.266 297.894 128.263L297.889 128.256C297.889 128.255 297.888 128.254 297.888 128.253C297.889 128.252 297.889 128.251 297.889 128.25C297.89 128.249 297.891 128.249 297.892 128.248C297.893 128.248 297.894 128.248 297.895 128.248L297.945 128.254Z" fill="#16E6E6"/>
<path d="M294.375 126.548C295.245 127.195 296.057 127.905 296.81 128.678C296.831 128.7 296.85 128.733 296.868 128.778C296.871 128.788 296.868 128.794 296.858 128.797C296.83 128.804 296.804 128.808 296.778 128.811C296.767 128.811 296.761 128.817 296.762 128.828C296.764 128.906 296.762 128.983 296.756 129.061C296.749 129.152 296.748 129.232 296.754 129.3C296.792 129.816 296.808 130.333 296.801 130.85C296.799 131.001 296.776 131.197 296.802 131.387C296.809 131.443 296.805 131.502 296.789 131.565C296.788 131.57 296.787 131.575 296.788 131.581C296.789 131.586 296.791 131.59 296.793 131.595C296.81 131.621 296.809 131.649 296.793 131.678C296.787 131.688 296.786 131.699 296.789 131.71L296.83 131.83C296.833 131.841 296.831 131.851 296.822 131.859C296.812 131.869 296.811 131.881 296.82 131.896C296.824 131.903 296.826 131.911 296.825 131.919L296.789 132.292C296.787 132.307 296.794 132.314 296.808 132.314C296.814 132.314 296.819 132.314 296.824 132.314C296.836 132.314 296.841 132.319 296.84 132.331L296.836 132.377C296.452 131.982 296.03 131.608 295.571 131.255L295.339 131.038C295.339 130.989 295.346 130.938 295.361 130.885C295.362 130.885 295.372 130.864 295.394 130.823C295.406 130.798 295.407 130.773 295.395 130.746C295.363 130.671 295.315 130.59 295.251 130.502C295.201 130.433 295.156 130.362 295.116 130.288C295.062 130.187 294.994 130.093 294.943 129.996C294.837 129.795 294.719 129.603 294.587 129.418C294.541 129.353 294.514 129.278 294.473 129.207C294.467 129.197 294.465 129.187 294.467 129.176C294.488 129.044 294.494 128.912 294.485 128.778C294.481 128.726 294.504 128.672 294.501 128.614C294.501 128.612 294.502 128.611 294.502 128.609C294.503 128.608 294.504 128.606 294.505 128.605C294.507 128.604 294.508 128.604 294.51 128.603C294.511 128.603 294.513 128.603 294.514 128.603L294.527 128.606C294.539 128.608 294.546 128.604 294.548 128.592L294.575 128.46C294.577 128.45 294.574 128.445 294.564 128.445H294.517C294.511 128.445 294.505 128.443 294.501 128.439C294.496 128.435 294.494 128.429 294.494 128.423C294.489 127.966 294.487 127.51 294.489 127.054C294.49 126.95 294.461 126.827 294.468 126.71C294.469 126.702 294.473 126.697 294.481 126.696C294.484 126.696 294.487 126.695 294.49 126.695C294.491 126.695 294.491 126.695 294.491 126.694L294.375 126.548Z" fill="#11E5D4"/>
<path d="M292.789 129.521C293.565 129.969 294.341 130.418 295.116 130.869C295.158 130.894 295.233 130.95 295.34 131.038L295.571 131.255C295.827 131.644 295.955 132.019 295.955 132.383C295.955 132.717 295.955 133.051 295.956 133.384C295.957 133.923 295.956 134.461 295.955 134.999C295.953 135.581 295.752 136.055 295.354 136.422C295.253 136.515 295.089 136.627 294.862 136.758C294.195 137.144 293.527 137.53 292.86 137.915C292.548 138.094 292.304 138.193 291.975 138.232C291.595 138.257 291.247 138.182 290.931 138.006C290.82 137.945 290.552 137.791 290.129 137.545C289.273 137.058 288.722 136.738 288.475 136.585C288.274 136.46 288.097 136.273 287.943 136.024C287.764 135.728 287.675 135.395 287.675 135.023C287.676 134.13 287.676 133.236 287.676 132.343C287.676 132.218 287.699 132.067 287.746 131.891C287.889 131.453 288.132 131.12 288.475 130.893C288.583 130.821 288.853 130.664 289.285 130.421C289.752 130.149 290.216 129.881 290.678 129.616C290.93 129.471 291.121 129.378 291.253 129.335C291.773 129.165 292.285 129.227 292.789 129.521ZM289.682 133.046C289.681 133.452 289.681 133.857 289.683 134.261C289.685 134.592 289.716 134.819 289.92 135.049C289.99 135.128 290.13 135.228 290.34 135.35C290.635 135.521 290.93 135.691 291.226 135.861C291.381 135.95 291.504 136.005 291.596 136.026C291.954 136.109 292.17 135.995 292.518 135.794C292.788 135.638 293.057 135.482 293.327 135.326C293.638 135.147 293.819 134.999 293.911 134.672C293.953 134.523 293.947 134.339 293.948 134.174C293.948 133.871 293.949 133.567 293.949 133.263C293.949 133.039 293.934 132.876 293.902 132.774C293.826 132.524 293.667 132.333 293.425 132.201C293.114 132.031 292.809 131.847 292.502 131.67C292.276 131.539 292.109 131.463 292.001 131.44C291.774 131.392 291.551 131.429 291.333 131.551C291.167 131.644 290.811 131.85 290.265 132.169C290.1 132.266 289.984 132.351 289.919 132.425C289.767 132.595 289.688 132.802 289.682 133.046Z" fill="#1C201F"/>
<path d="M295.571 131.255C296.03 131.608 296.452 131.982 296.836 132.377C297.218 132.743 297.594 133.15 297.966 133.598C298.579 134.337 299.104 135.126 299.427 136.021C299.482 136.175 299.522 136.332 299.546 136.493V136.589C299.546 136.606 299.542 136.607 299.533 136.593C299.373 136.317 299.266 136.14 299.212 136.062C299.067 135.853 298.869 135.62 298.618 135.363C298.343 135.082 298.014 134.79 297.63 134.488C297.117 134.085 296.583 133.712 296.029 133.369C296.015 133.361 296.003 133.357 295.991 133.356C295.967 133.356 295.955 133.365 295.956 133.384C295.955 133.051 295.955 132.717 295.955 132.383C295.955 132.019 295.827 131.643 295.571 131.255Z" fill="#399DB8"/>
<path d="M293.948 134.174L293.943 134.221C293.941 134.233 293.935 134.239 293.923 134.24C292.925 134.277 291.868 134.171 290.937 133.793C290.505 133.618 290.114 133.378 289.762 133.074C289.755 133.067 289.746 133.065 289.736 133.068C289.712 133.075 289.695 133.068 289.682 133.046C289.688 132.802 289.767 132.595 289.919 132.425C289.984 132.351 290.1 132.266 290.265 132.169C290.811 131.85 291.167 131.644 291.333 131.551C291.551 131.429 291.774 131.392 292.001 131.44C292.109 131.463 292.276 131.539 292.502 131.67C292.809 131.847 293.114 132.031 293.425 132.201C293.667 132.333 293.826 132.524 293.902 132.774C293.934 132.876 293.949 133.039 293.949 133.263C293.949 133.567 293.948 133.871 293.948 134.174Z" fill="#F0F4FF"/>
<path d="M287.74 131.657C287.715 131.729 287.717 131.807 287.746 131.891C287.699 132.067 287.676 132.218 287.676 132.343C287.676 133.236 287.675 134.13 287.675 135.023C287.675 135.395 287.764 135.728 287.943 136.024L287.926 136.031C287.922 136.033 287.92 136.031 287.922 136.026L287.926 136.013C287.927 136.009 287.925 136.007 287.921 136.007C287.917 136.007 287.913 136.007 287.909 136.007C287.908 136.007 287.907 136.007 287.905 136.008C287.904 136.008 287.903 136.009 287.902 136.01C287.896 136.018 287.892 136.025 287.892 136.033C287.89 136.052 287.881 136.056 287.866 136.045L287.837 136.024C287.829 136.018 287.821 136.017 287.811 136.02C287.767 136.034 287.721 136.045 287.674 136.053C287.665 136.054 287.656 136.052 287.649 136.047C287.607 136.016 287.567 136.017 287.529 136.051C287.52 136.058 287.511 136.062 287.501 136.063C287.391 136.078 287.316 136.086 287.275 136.086C286.42 136.083 285.565 136.082 284.709 136.083C284.698 136.083 284.687 136.085 284.677 136.089L284.629 136.107C284.619 136.111 284.609 136.11 284.6 136.104C284.567 136.085 284.532 136.079 284.495 136.085C284.485 136.086 284.477 136.091 284.471 136.098C284.464 136.106 284.46 136.115 284.458 136.125C284.457 136.136 284.45 136.14 284.44 136.136L284.312 136.087C284.299 136.082 284.286 136.08 284.272 136.081L284.176 136.089C284.173 136.09 284.17 136.09 284.168 136.092C284.165 136.093 284.163 136.095 284.161 136.097C284.131 136.131 284.098 136.136 284.06 136.113C284.049 136.106 284.044 136.096 284.044 136.083V136.019C284.044 136.016 284.043 136.013 284.041 136.011C284.039 136.01 284.036 136.008 284.034 136.008C284.031 136.008 284.028 136.009 284.026 136.011C284.024 136.013 284.023 136.016 284.023 136.018L284.015 136.213C284.015 136.22 284.014 136.22 284.012 136.214C283.998 136.176 284.015 136.099 284.002 136.049L284.004 135.852C284.017 135.852 284.029 135.851 284.039 135.846C284.049 135.842 284.055 135.834 284.058 135.824C284.091 135.709 284.115 135.606 284.13 135.513C284.338 134.213 284.695 132.955 285.201 131.74C285.217 131.703 285.239 131.674 285.269 131.652C285.273 131.649 285.277 131.647 285.282 131.646C285.287 131.646 285.292 131.646 285.297 131.648C285.36 131.672 285.423 131.68 285.485 131.671C285.568 131.659 285.6 131.662 285.672 131.673C285.698 131.678 285.723 131.679 285.747 131.678C286.085 131.655 286.423 131.648 286.762 131.658C286.939 131.664 287.129 131.671 287.305 131.653C287.343 131.649 287.376 131.647 287.406 131.648C287.467 131.65 287.527 131.638 287.584 131.613C287.594 131.609 287.604 131.609 287.614 131.614C287.632 131.623 287.649 131.619 287.663 131.603C287.672 131.594 287.68 131.594 287.687 131.604C287.704 131.63 287.722 131.647 287.74 131.657Z" fill="#11E5D4"/>
<path d="M289.683 133.046C289.695 133.068 289.712 133.075 289.736 133.068C289.746 133.065 289.755 133.067 289.762 133.074C290.114 133.378 290.505 133.618 290.937 133.793C291.868 134.171 292.926 134.277 293.923 134.24C293.935 134.239 293.942 134.233 293.943 134.221L293.948 134.174C293.947 134.339 293.953 134.523 293.911 134.672C293.819 134.999 293.638 135.147 293.327 135.326C293.057 135.482 292.788 135.638 292.518 135.794C292.17 135.995 291.954 136.109 291.596 136.026C291.504 136.005 291.381 135.95 291.226 135.861C290.931 135.691 290.635 135.521 290.34 135.35C290.13 135.228 289.99 135.128 289.92 135.049C289.716 134.819 289.685 134.592 289.683 134.261C289.681 133.857 289.681 133.452 289.683 133.046Z" fill="#DBE2FF"/>
<path d="M299.546 136.493L299.583 136.683C299.584 136.694 299.591 136.698 299.601 136.697L299.63 136.694C299.625 136.854 299.623 137.015 299.625 137.175C299.627 137.463 299.568 137.732 299.447 137.982C299.377 137.974 299.321 137.975 299.278 137.984C297.936 138.271 296.582 138.471 295.215 138.585C293.953 138.689 292.69 138.719 291.426 138.674C291.324 138.67 291.218 138.661 291.108 138.647C291.087 138.639 291.096 138.62 291.133 138.591C291.147 138.58 291.164 138.571 291.185 138.564C291.421 138.486 291.655 138.403 291.888 138.314C291.932 138.298 291.95 138.269 291.974 138.232C292.304 138.193 292.548 138.094 292.86 137.915C293.527 137.53 294.195 137.144 294.862 136.758C295.089 136.627 295.253 136.515 295.354 136.422C295.752 136.055 295.953 135.581 295.955 134.999C295.956 134.461 295.957 133.923 295.956 133.384C295.955 133.365 295.967 133.356 295.991 133.357C296.003 133.357 296.015 133.361 296.029 133.369C296.583 133.712 297.117 134.085 297.63 134.488C298.014 134.79 298.343 135.082 298.618 135.363C298.869 135.62 299.067 135.853 299.212 136.062C299.266 136.14 299.373 136.317 299.533 136.593C299.542 136.607 299.546 136.606 299.546 136.589V136.493Z" fill="#38C0D1"/>
<path d="M287.943 136.024C288.096 136.273 288.274 136.46 288.475 136.585C288.722 136.738 289.273 137.058 290.129 137.545C289.641 137.897 289.11 138.193 288.535 138.435C287.389 138.917 286.208 139.046 284.993 138.821C284.461 138.524 284.143 138.092 284.037 137.526C284.012 137.395 284 137.181 284 136.885C284 136.607 284.001 136.328 284.002 136.049C284.015 136.099 283.998 136.176 284.012 136.214C284.014 136.22 284.015 136.22 284.015 136.213L284.023 136.018C284.023 136.016 284.024 136.013 284.026 136.011C284.028 136.009 284.031 136.008 284.034 136.008C284.036 136.008 284.039 136.01 284.041 136.011C284.043 136.013 284.044 136.016 284.044 136.019V136.083C284.044 136.096 284.049 136.106 284.06 136.113C284.098 136.136 284.131 136.131 284.161 136.097C284.163 136.095 284.165 136.093 284.168 136.092C284.17 136.09 284.173 136.09 284.176 136.089L284.272 136.081C284.286 136.08 284.299 136.082 284.312 136.087L284.44 136.136C284.45 136.14 284.457 136.136 284.458 136.125C284.46 136.115 284.464 136.106 284.47 136.098C284.477 136.091 284.485 136.086 284.495 136.085C284.532 136.079 284.567 136.085 284.6 136.104C284.609 136.11 284.619 136.111 284.629 136.107L284.677 136.089C284.687 136.085 284.698 136.083 284.709 136.083C285.565 136.082 286.42 136.083 287.275 136.086C287.316 136.086 287.391 136.078 287.501 136.063C287.511 136.062 287.52 136.058 287.528 136.051C287.567 136.017 287.607 136.016 287.649 136.047C287.656 136.052 287.665 136.054 287.674 136.053C287.721 136.045 287.767 136.034 287.811 136.02C287.821 136.017 287.829 136.018 287.837 136.024L287.866 136.045C287.881 136.056 287.89 136.052 287.892 136.033C287.892 136.025 287.896 136.018 287.902 136.01C287.903 136.009 287.904 136.008 287.905 136.008C287.907 136.007 287.908 136.007 287.909 136.007C287.913 136.007 287.917 136.007 287.921 136.007C287.925 136.007 287.927 136.009 287.926 136.013L287.922 136.026C287.92 136.031 287.922 136.033 287.926 136.031L287.943 136.024Z" fill="#3AE5B9"/>
<path d="M290.128 137.545C290.552 137.791 290.82 137.945 290.931 138.006C291.247 138.182 291.595 138.257 291.974 138.232C291.95 138.269 291.932 138.298 291.888 138.314C291.655 138.403 291.421 138.486 291.185 138.564C291.164 138.571 291.147 138.58 291.133 138.591C291.096 138.62 291.087 138.639 291.108 138.647C290.989 138.63 290.889 138.633 290.807 138.657C290.28 138.807 289.749 138.936 289.212 139.042C288.496 139.176 287.869 139.25 287.331 139.263C286.871 139.275 286.427 139.245 285.999 139.171C285.789 139.135 285.572 139.076 285.347 138.993C285.335 138.989 285.33 138.993 285.332 139.005C285.333 139.01 285.332 139.015 285.33 139.02L284.993 138.821C286.208 139.046 287.389 138.917 288.535 138.435C289.11 138.193 289.641 137.897 290.128 137.545Z" fill="#36BC94"/>
<path d="M299.447 137.982C299.225 138.427 298.949 138.642 298.488 138.908C296.551 140.026 294.615 141.144 292.679 142.263C292.606 142.305 292.492 142.352 292.338 142.403L292.223 142.285C292.221 142.284 292.222 142.283 292.223 142.282C292.367 142.242 292.511 142.18 292.655 142.095C293.175 141.792 293.704 141.485 294.239 141.176C294.242 141.175 294.244 141.173 294.245 141.17C294.246 141.168 294.247 141.165 294.247 141.162C294.247 141.16 294.246 141.157 294.244 141.155C294.242 141.152 294.24 141.15 294.238 141.149C294.192 141.13 294.144 141.119 294.095 141.118C294.093 141.118 294.092 141.116 294.091 141.114L294.088 141.101C294.086 141.095 294.083 141.093 294.077 141.094C294.029 141.099 293.982 141.095 293.935 141.079C293.919 141.074 293.9 141.082 293.877 141.102C293.872 141.107 293.868 141.106 293.866 141.099L293.863 141.086C293.861 141.077 293.855 141.072 293.846 141.071L293.55 141.05C293.549 141.05 293.548 141.05 293.548 141.049C293.547 141.048 293.546 141.048 293.546 141.047C293.546 141.046 293.546 141.045 293.546 141.044C293.546 141.044 293.547 141.043 293.547 141.042L293.554 141.036C293.565 141.024 293.563 141.018 293.547 141.018L293.19 141.014C293.176 141.014 293.173 141.008 293.181 140.996L293.247 140.9C293.251 140.894 293.25 140.89 293.242 140.889L293.178 140.878C293.16 140.875 293.157 140.867 293.168 140.853L293.243 140.76C293.246 140.757 293.249 140.754 293.253 140.753C293.257 140.751 293.261 140.75 293.266 140.75L293.579 140.759C293.591 140.76 293.601 140.755 293.609 140.747C293.635 140.72 293.666 140.714 293.704 140.73C293.714 140.734 293.726 140.737 293.737 140.737C293.748 140.736 293.759 140.734 293.77 140.729C293.78 140.725 293.79 140.718 293.797 140.71C293.805 140.702 293.811 140.692 293.815 140.681L293.862 140.552C293.865 140.544 293.871 140.538 293.88 140.535L293.986 140.501C293.99 140.5 293.994 140.499 293.998 140.501C294.027 140.508 294.049 140.501 294.065 140.479C294.069 140.473 294.076 140.468 294.083 140.466L294.199 140.444C294.204 140.443 294.208 140.441 294.211 140.438C294.215 140.435 294.217 140.431 294.219 140.427C294.249 140.348 294.297 140.303 294.364 140.293C294.446 140.282 294.529 140.26 294.614 140.228C294.617 140.227 294.62 140.227 294.623 140.228C294.626 140.229 294.628 140.231 294.63 140.233C294.632 140.236 294.632 140.239 294.632 140.242C294.632 140.245 294.63 140.248 294.628 140.25L294.612 140.266C294.611 140.267 294.611 140.268 294.611 140.268C294.61 140.269 294.61 140.27 294.611 140.271C294.611 140.271 294.612 140.272 294.612 140.273C294.613 140.273 294.614 140.273 294.614 140.273L294.808 140.28C294.814 140.28 294.818 140.277 294.82 140.271L294.829 140.243C294.83 140.24 294.832 140.236 294.834 140.233C294.837 140.23 294.84 140.228 294.844 140.227C294.848 140.225 294.852 140.224 294.856 140.225C294.859 140.225 294.863 140.226 294.867 140.228C294.902 140.247 294.941 140.248 294.983 140.233C294.992 140.23 294.999 140.224 295.004 140.216C295.018 140.192 295.037 140.175 295.061 140.163C295.072 140.158 295.076 140.15 295.075 140.138L295.067 140.092C295.065 140.082 295.067 140.073 295.072 140.065C295.117 140.003 295.137 139.938 295.133 139.872C295.125 139.726 295.123 139.616 295.126 139.539C295.127 139.504 295.151 139.47 295.134 139.42C295.131 139.411 295.131 139.402 295.136 139.393C295.193 139.271 295.2 139.161 295.157 139.061C295.112 138.953 295.085 138.866 295.076 138.799C295.076 138.795 295.072 138.777 295.066 138.745C295.057 138.7 295.077 138.674 295.125 138.668C295.135 138.666 295.136 138.662 295.131 138.654C295.128 138.651 295.125 138.649 295.12 138.649C295.091 138.648 295.064 138.643 295.037 138.634C295.019 138.629 295.019 138.625 295.037 138.621L295.215 138.585C296.582 138.471 297.936 138.271 299.278 137.984C299.321 137.975 299.377 137.974 299.447 137.982Z" fill="#11E5D4"/>
<path d="M295.215 138.585L295.037 138.621C295.019 138.625 295.019 138.629 295.037 138.634C295.064 138.643 295.092 138.648 295.12 138.649C295.125 138.649 295.128 138.651 295.131 138.654C295.136 138.662 295.135 138.666 295.125 138.668C295.077 138.674 295.057 138.7 295.066 138.745C295.072 138.777 295.076 138.795 295.076 138.799C295.085 138.866 295.112 138.953 295.157 139.061C295.2 139.161 295.193 139.271 295.136 139.393C295.131 139.402 295.131 139.411 295.134 139.42C295.151 139.47 295.127 139.504 295.126 139.539C295.123 139.616 295.125 139.726 295.133 139.872C295.137 139.938 295.117 140.003 295.072 140.065C295.067 140.073 295.065 140.082 295.067 140.092L295.075 140.138C295.077 140.15 295.072 140.158 295.061 140.163C295.037 140.175 295.018 140.192 295.004 140.216C294.999 140.224 294.992 140.23 294.983 140.233C294.941 140.248 294.902 140.247 294.867 140.228C294.863 140.226 294.86 140.225 294.856 140.225C294.852 140.224 294.848 140.225 294.844 140.227C294.84 140.228 294.837 140.23 294.834 140.233C294.832 140.236 294.83 140.24 294.829 140.243L294.82 140.271C294.818 140.277 294.814 140.28 294.808 140.28L294.614 140.273C294.614 140.273 294.613 140.273 294.612 140.273C294.612 140.272 294.611 140.271 294.611 140.271C294.61 140.27 294.61 140.269 294.611 140.268C294.611 140.268 294.611 140.267 294.612 140.266L294.628 140.25C294.63 140.248 294.632 140.245 294.632 140.242C294.632 140.239 294.632 140.236 294.63 140.233C294.628 140.231 294.626 140.229 294.623 140.228C294.62 140.227 294.617 140.227 294.614 140.228C294.529 140.26 294.446 140.282 294.364 140.293C294.297 140.303 294.249 140.348 294.219 140.427C294.217 140.431 294.215 140.435 294.211 140.438C294.208 140.441 294.204 140.443 294.199 140.444L294.084 140.466C294.076 140.468 294.069 140.473 294.065 140.479C294.049 140.501 294.027 140.508 293.998 140.501C293.994 140.499 293.99 140.5 293.986 140.501L293.88 140.535C293.871 140.538 293.865 140.544 293.862 140.552L293.815 140.681C293.811 140.692 293.805 140.702 293.797 140.71C293.79 140.718 293.78 140.725 293.77 140.729C293.759 140.734 293.748 140.736 293.737 140.737C293.726 140.737 293.714 140.734 293.704 140.73C293.666 140.714 293.635 140.72 293.609 140.747C293.601 140.755 293.591 140.76 293.579 140.759L293.266 140.75C293.261 140.75 293.257 140.751 293.253 140.753C293.249 140.754 293.246 140.757 293.243 140.76L293.168 140.853C293.157 140.867 293.16 140.875 293.178 140.878L293.242 140.889C293.25 140.89 293.251 140.894 293.247 140.9L293.181 140.996C293.173 141.008 293.176 141.014 293.19 141.014L293.547 141.018C293.563 141.018 293.565 141.024 293.554 141.036L293.547 141.042C293.547 141.043 293.546 141.044 293.546 141.044C293.546 141.045 293.546 141.046 293.546 141.047C293.546 141.048 293.547 141.048 293.548 141.049C293.548 141.05 293.549 141.05 293.55 141.05L293.846 141.071C293.855 141.072 293.861 141.077 293.863 141.086L293.866 141.099C293.868 141.106 293.872 141.107 293.877 141.102C293.9 141.082 293.919 141.074 293.935 141.079C293.982 141.095 294.029 141.099 294.077 141.094C294.083 141.093 294.086 141.095 294.088 141.101L294.091 141.114C294.092 141.116 294.093 141.118 294.095 141.118C294.144 141.119 294.192 141.13 294.238 141.149C294.24 141.15 294.242 141.152 294.244 141.155C294.246 141.157 294.247 141.16 294.247 141.162C294.247 141.165 294.246 141.168 294.245 141.17C294.244 141.173 294.242 141.175 294.239 141.176C293.704 141.485 293.176 141.792 292.655 142.095C292.511 142.18 292.367 142.242 292.223 142.282C292.222 142.283 292.222 142.284 292.223 142.285L292.338 142.403C291.823 142.547 291.325 142.481 290.845 142.202C289.955 141.686 289.066 141.172 288.175 140.659C288.17 140.605 288.184 140.569 288.215 140.552C288.242 140.537 288.279 140.533 288.325 140.541C288.334 140.542 288.34 140.547 288.344 140.556L288.354 140.581C288.36 140.598 288.37 140.599 288.381 140.585L288.455 140.495C288.462 140.487 288.471 140.483 288.482 140.485C288.566 140.499 288.621 140.468 288.646 140.392C288.65 140.381 288.657 140.377 288.668 140.378L288.751 140.389C288.76 140.39 288.762 140.395 288.757 140.403L288.741 140.426C288.74 140.428 288.739 140.43 288.739 140.432C288.739 140.434 288.739 140.436 288.74 140.438C288.741 140.44 288.743 140.442 288.744 140.443C288.746 140.444 288.748 140.445 288.75 140.445L289.326 140.472C289.331 140.472 289.335 140.471 289.338 140.468C289.341 140.466 289.344 140.462 289.345 140.458C289.366 140.367 289.421 140.333 289.508 140.358C289.521 140.362 289.531 140.358 289.54 140.348L289.587 140.289C289.594 140.28 289.592 140.275 289.581 140.273L289.405 140.246C289.392 140.243 289.389 140.237 289.394 140.225C289.398 140.216 289.407 140.211 289.419 140.211C289.436 140.212 289.46 140.216 289.492 140.225C289.505 140.229 289.516 140.23 289.524 140.227C289.535 140.223 289.543 140.215 289.546 140.204C289.548 140.193 289.544 140.186 289.533 140.184L289.352 140.146C289.34 140.144 289.33 140.147 289.323 140.157C289.296 140.191 289.263 140.191 289.224 140.157C289.216 140.15 289.213 140.142 289.213 140.132C289.217 139.97 289.216 139.808 289.207 139.647C289.205 139.594 289.176 139.539 289.172 139.482C289.164 139.386 289.146 139.291 289.118 139.198C289.115 139.189 289.116 139.18 289.119 139.171L289.134 139.127C289.138 139.118 289.134 139.113 289.124 139.113H289.11C289.105 139.113 289.102 139.111 289.1 139.108C289.098 139.104 289.098 139.1 289.1 139.096C289.102 139.091 289.105 139.087 289.11 139.084C289.115 139.081 289.12 139.079 289.125 139.078C289.17 139.078 289.199 139.066 289.212 139.042C289.749 138.936 290.281 138.807 290.807 138.657C290.889 138.633 290.989 138.63 291.108 138.647C291.218 138.661 291.324 138.67 291.426 138.674C292.69 138.719 293.953 138.69 295.215 138.585Z" fill="#3AE5B9"/>
<path d="M289.212 139.042C289.199 139.066 289.17 139.078 289.125 139.078C289.12 139.079 289.115 139.081 289.11 139.084C289.105 139.087 289.102 139.091 289.1 139.096C289.098 139.1 289.098 139.104 289.1 139.108C289.102 139.111 289.105 139.113 289.11 139.113H289.124C289.134 139.113 289.138 139.118 289.134 139.127L289.119 139.171C289.116 139.18 289.115 139.189 289.118 139.198C289.146 139.291 289.164 139.386 289.171 139.482C289.176 139.539 289.205 139.594 289.207 139.647C289.215 139.808 289.217 139.97 289.213 140.132C289.213 140.142 289.216 140.15 289.224 140.157C289.263 140.191 289.296 140.191 289.323 140.157C289.33 140.147 289.34 140.144 289.352 140.146L289.533 140.184C289.544 140.186 289.548 140.193 289.546 140.204C289.543 140.215 289.535 140.223 289.523 140.227C289.516 140.23 289.505 140.229 289.492 140.225C289.46 140.216 289.436 140.212 289.419 140.211C289.407 140.211 289.398 140.216 289.394 140.225C289.389 140.236 289.392 140.243 289.405 140.246L289.581 140.273C289.592 140.275 289.594 140.28 289.587 140.289L289.54 140.348C289.531 140.358 289.521 140.362 289.508 140.358C289.421 140.333 289.366 140.367 289.345 140.458C289.344 140.462 289.341 140.466 289.338 140.468C289.335 140.471 289.33 140.472 289.326 140.472L288.75 140.445C288.748 140.445 288.746 140.444 288.744 140.443C288.742 140.442 288.741 140.44 288.74 140.438C288.739 140.436 288.739 140.434 288.739 140.432C288.739 140.43 288.74 140.428 288.741 140.426L288.757 140.403C288.762 140.395 288.76 140.39 288.751 140.389L288.668 140.378C288.657 140.377 288.65 140.381 288.646 140.392C288.621 140.468 288.566 140.499 288.482 140.485C288.471 140.483 288.462 140.486 288.455 140.495L288.381 140.585C288.37 140.599 288.36 140.598 288.354 140.581L288.344 140.556C288.34 140.547 288.334 140.542 288.325 140.541C288.279 140.533 288.242 140.537 288.215 140.552C288.184 140.569 288.17 140.605 288.175 140.659L285.33 139.02C285.332 139.015 285.333 139.01 285.332 139.005C285.33 138.993 285.335 138.989 285.347 138.993C285.572 139.076 285.789 139.135 285.999 139.171C286.427 139.245 286.871 139.275 287.331 139.263C287.869 139.25 288.496 139.176 289.212 139.042Z" fill="#11F9A0"/>
</g>
<defs>
<linearGradient id="paint0_linear_7_254" x1="206.5" y1="2" x2="224.162" y2="21.6543" gradientUnits="userSpaceOnUse">
<stop stop-color="#11E5D4"/>
<stop offset="1" stop-color="#2B836C"/>
</linearGradient>
<linearGradient id="paint1_linear_7_254" x1="318.5" y1="169" x2="331.17" y2="199.212" gradientUnits="userSpaceOnUse">
<stop stop-color="#E51111"/>
<stop offset="1" stop-color="#0F0F0F"/>
</linearGradient>
<clipPath id="clip0_7_254">
<rect width="552.941" height="367.921" fill="white"/>
</clipPath>
</defs>
</svg>
